<svg id="ic_blue_business_represent" xmlns="http://www.w3.org/2000/svg" width="35" height="35" viewBox="0 0 35 35">
  <rect id="Bounds" width="35" height="35" fill="none"/>
  <path id="ic_blue_business_represent-2" data-name="ic_blue_business_represent" d="M18.971,3c-2.926,0-4.615,2.281-4.615,5.032A5.011,5.011,0,0,0,14.8,9.893a.981.981,0,0,0-.4,1c.138,1.076.6,1.349.9,1.372a4.381,4.381,0,0,0,1.57,2.478v1.678C16.034,18.942,11,17.264,11,23.137H26.941c0-5.873-5.034-4.2-5.873-6.712V14.747a4.379,4.379,0,0,0,1.57-2.476c.3-.023.764-.3.9-1.373a.98.98,0,0,0-.4-1,4.438,4.438,0,0,0,.442-1.857c0-2.037-.8-3.776-2.517-3.776A1.954,1.954,0,0,0,18.971,3Z" transform="translate(-1.074 4.431)" fill="#3384ff"/>
</svg>
