<svg xmlns="http://www.w3.org/2000/svg" width="140.413" height="128.881" viewBox="0 0 140.413 128.881">
  <path id="ic_business_search" d="M11721.031-15255.217a26.63,26.63,0,0,1-8.484-5.719,26.592,26.592,0,0,1-5.718-8.482,26.523,26.523,0,0,1-2.1-10.385,26.523,26.523,0,0,1,2.1-10.385,26.578,26.578,0,0,1,5.718-8.484,26.662,26.662,0,0,1,8.484-5.719,26.545,26.545,0,0,1,10.388-2.1,26.553,26.553,0,0,1,10.389,2.1,26.621,26.621,0,0,1,8.482,5.719,26.61,26.61,0,0,1,5.718,8.484,26.523,26.523,0,0,1,2.1,10.385,26.523,26.523,0,0,1-2.1,10.385,26.624,26.624,0,0,1-5.718,8.482,26.621,26.621,0,0,1-8.482,5.719,26.551,26.551,0,0,1-10.389,2.1A26.543,26.543,0,0,1,11721.031-15255.217Zm22.693-9.484a2.314,2.314,0,0,0,1.629.666,2.3,2.3,0,0,0,1.625-.666,2.212,2.212,0,0,0,.676-1.594,2.215,2.215,0,0,0-.676-1.594l-6.49-6.375a13.267,13.267,0,0,0,2.564-7.838,13.688,13.688,0,0,0-13.794-13.545,13.69,13.69,0,0,0-13.8,13.545,13.691,13.691,0,0,0,13.8,13.549,13.834,13.834,0,0,0,7.979-2.521Zm-110.683-17.02v-30.084h10.031v30.084h52.4l-.913,10.018-51.487.012A10.03,10.03,0,0,1,11633.042-15281.721Zm89.713,6.006a8.884,8.884,0,0,1-2.693-6.387,8.882,8.882,0,0,1,2.693-6.383,9.224,9.224,0,0,1,6.5-2.646,9.223,9.223,0,0,1,6.5,2.646,8.888,8.888,0,0,1,2.693,6.383,8.89,8.89,0,0,1-2.693,6.387,9.221,9.221,0,0,1-6.5,2.645A9.223,9.223,0,0,1,11722.755-15275.715Zm15.6-56.145-10.027-20.059h-15.044l5.014,20.059a10.024,10.024,0,0,1-10.03,10.025,10.024,10.024,0,0,1-10.027-10.025v-20.059h-20.061v20.059a10.024,10.024,0,0,1-10.028,10.025,10.023,10.023,0,0,1-10.029-10.025l5.013-20.059h-15.044l-10.027,20.059a10.026,10.026,0,0,1-10.03,10.025,10.026,10.026,0,0,1-10.03-10.025l15.044-20.059v-20.055a10.03,10.03,0,0,1,10.031-10.029h90.264a10.029,10.029,0,0,1,10.03,10.029v20.055l15.044,20.059a10.026,10.026,0,0,1-10.03,10.025A10.024,10.024,0,0,1,11738.351-15331.859Zm-75.221-35.1a5.017,5.017,0,0,0,5.017,5.016,5.017,5.017,0,0,0,5.015-5.016,5.016,5.016,0,0,0-5.015-5.014A5.017,5.017,0,0,0,11663.13-15366.959Zm-20.057,0a5.016,5.016,0,0,0,5.013,5.016,5.017,5.017,0,0,0,5.017-5.016,5.016,5.016,0,0,0-5.017-5.014A5.015,5.015,0,0,0,11643.073-15366.959Z" transform="translate(-11617.998 15382.002)" fill="#3384ff"/>
</svg>
