<svg id="ic_blue_business_verify" xmlns="http://www.w3.org/2000/svg" width="35" height="35" viewBox="0 0 35 35">
  <rect id="Bounds" width="35" height="35" fill="none"/>
  <path id="ic_blue_business_verify-2" data-name="ic_blue_business_verify" d="M12.8,3A4.153,4.153,0,0,0,8.645,7.153c0,2.814,2.492,3.673,2.492,4.983v.341c0,1.31-.655,1.459-1.685,1.658-.742.143-6.217,1.3-6.4,1.34l-.083.018-.026,0A1.246,1.246,0,0,0,2,16.7V17.95a1.661,1.661,0,0,0,1.661,1.661H21.934a1.661,1.661,0,0,0,1.661-1.661V16.7a1.246,1.246,0,0,0-.939-1.207l-.008,0q-.043-.01-.088-.018c-.164-.035-5.672-1.2-6.416-1.343-1.031-.2-1.685-.348-1.685-1.658v-.341c0-1.311,2.492-2.169,2.492-4.983A4.153,4.153,0,0,0,12.8,3ZM3.661,21.206a.831.831,0,1,0,0,1.661H21.934a.831.831,0,1,0,0-1.661Z" transform="translate(4.746 4.526)" fill="#3384ff"/>
</svg>
