<svg id="ic_blue_process_status" xmlns="http://www.w3.org/2000/svg" width="35" height="35" viewBox="0 0 35 35">
  <rect id="Bounds" width="35" height="35" fill="none"/>
  <path id="ic_blue_process_status-2" data-name="ic_blue_process_status" d="M4.174,2A2.135,2.135,0,0,0,2,4.174V15.766a2.135,2.135,0,0,0,2.174,2.174H15.766a2.135,2.135,0,0,0,2.174-2.174V4.174A2.135,2.135,0,0,0,15.766,2H12.143A2.174,2.174,0,1,1,7.8,2Zm5.8,4.347a4.347,4.347,0,1,1-4.347,4.347A4.359,4.359,0,0,1,9.97,6.347Zm-.362.725-.362,3.4-1.313,2.4.815.589,1.947-2.536-.362-3.849Z" transform="translate(7.53 7.53)" fill="#3384ff"/>
</svg>
