<svg id="ic_blue_calendar" xmlns="http://www.w3.org/2000/svg" width="35" height="35" viewBox="0 0 35 35">
  <rect id="Bounds" width="35" height="35" fill="none"/>
  <path id="ic_blue_calendar-2" data-name="ic_blue_calendar" d="M17.333,4h-12A1.333,1.333,0,0,0,4,5.333v12a1.333,1.333,0,0,0,1.333,1.333h12a1.333,1.333,0,0,0,1.333-1.333v-12A1.333,1.333,0,0,0,17.333,4ZM6,16.666A.667.667,0,1,1,6.667,16,.667.667,0,0,1,6,16.666ZM6,14a.667.667,0,1,1,.667-.667A.667.667,0,0,1,6,14Zm2.667,2.667A.667.667,0,1,1,9.333,16,.667.667,0,0,1,8.666,16.666Zm0-2.667a.667.667,0,1,1,.667-.667A.667.667,0,0,1,8.666,14Zm0-2.667a.667.667,0,1,1,.667-.667A.667.667,0,0,1,8.666,11.333Zm2.667,5.333A.667.667,0,1,1,12,16,.667.667,0,0,1,11.333,16.666Zm0-2.667A.667.667,0,1,1,12,13.333.667.667,0,0,1,11.333,14Zm0-2.667A.667.667,0,1,1,12,10.666.667.667,0,0,1,11.333,11.333ZM14,16.666A.667.667,0,1,1,14.666,16,.667.667,0,0,1,14,16.666ZM14,14a.667.667,0,1,1,.667-.667A.667.667,0,0,1,14,14Zm-.667-3.333a.667.667,0,1,1,.667.667A.667.667,0,0,1,13.333,10.666ZM16.666,14a.667.667,0,1,1,.667-.667A.667.667,0,0,1,16.666,14Zm0-2.667a.667.667,0,1,1,.667-.667A.667.667,0,0,1,16.666,11.333ZM17.333,8h-12V5.333h12Z" transform="translate(6 6)" fill="#3384ff"/>
</svg>
