<svg xmlns="http://www.w3.org/2000/svg" width="151.216" height="128.883" viewBox="0 0 151.216 128.883">
  <path id="ic_business_add" d="M11630.188,13546.8a26.6,26.6,0,1,1,10.313,2.081A26.52,26.52,0,0,1,11630.188,13546.8Zm-3.672-24.14a2.846,2.846,0,0,0,2.846,2.843h8.535v8.535a2.844,2.844,0,1,0,5.688,0v-8.535h8.535a2.844,2.844,0,1,0,0-5.688h-8.535v-8.535a2.844,2.844,0,0,0-2.846-2.883h-.041a2.852,2.852,0,0,0-2.8,2.883v8.535h-8.535A2.849,2.849,0,0,0,11626.517,13522.661Zm67.992,8.151-14.658,0c-.622-4.243-1.092-7.538-1.438-10.068h61.553v-30.226h10.1v30.226a10.084,10.084,0,0,1-10.1,10.075Zm53.464-53.314a10,10,0,0,1-2.959-7.127l-10.1-20.146h-15.151l5.049,20.146a10.1,10.1,0,0,1-20.2,0v-20.146h-20.194v20.146a10.1,10.1,0,0,1-20.205,0l5.047-20.146h-15.148l-10.1,20.146a10.1,10.1,0,0,1-20.2,0l15.148-20.146v-20.15a10.083,10.083,0,0,1,10.1-10.075h90.9a10.084,10.084,0,0,1,10.1,10.075v20.15l15.148,20.146a10.108,10.108,0,0,1-17.243,7.127Zm-78.714-42.388a5.051,5.051,0,1,0,5.053-5.036A5.053,5.053,0,0,0,11669.259,13435.11Zm-20.2,0a5.051,5.051,0,1,0,5.05-5.036A5.05,5.05,0,0,0,11649.061,13435.11Z" transform="translate(-11614 -13419.999)" fill="#3384ff"/>
</svg>
