<svg id="ic_blue_username" xmlns="http://www.w3.org/2000/svg" width="35" height="35" viewBox="0 0 35 35">
  <rect id="Bounds" width="35" height="35" fill="none"/>
  <path id="ic_blue_username-2" data-name="ic_blue_username" d="M10.935,3a3.527,3.527,0,1,0,3.527,3.527A3.53,3.53,0,0,0,10.935,3Zm0,9.7C8.166,12.7,3,14.061,3,16.666v1.323a.882.882,0,0,0,.882.882h7.488a1.448,1.448,0,0,0,1.023-.424l3.763-3.763a.592.592,0,0,0-.2-.966A14.415,14.415,0,0,0,10.935,12.7Zm9,.882a.44.44,0,0,0-.312.129l-.882.882L20.5,16.355l.882-.882a.441.441,0,0,0,0-.623l-1.14-1.14A.441.441,0,0,0,19.935,13.58Zm-1.817,1.634L13.58,19.752v1.763h1.763l4.538-4.538Z" transform="translate(5.242 4.938)" fill="#3384ff"/>
</svg>
