<svg id="ic_blue_process_list" xmlns="http://www.w3.org/2000/svg" width="35" height="35" viewBox="0 0 35 35">
  <rect id="Bounds" width="35" height="35" fill="none"/>
  <path id="ic_blue_process_list-2" data-name="ic_blue_process_list" d="M12.978,3a9.978,9.978,0,1,0,9.978,9.978A9.978,9.978,0,0,0,12.978,3Zm.832,2.495a.832.832,0,0,1,.832.832v5.4a.416.416,0,0,0,.832,0V7.989a.832.832,0,0,1,1.663,0v6.725l1.6-1.471,0,.006a1.023,1.023,0,0,1,.685-.271,1.035,1.035,0,0,1,1.035,1.035,1.018,1.018,0,0,1-.349.762l.006.008L16.07,18.5A3.716,3.716,0,0,1,13.4,19.63H12.147a4.158,4.158,0,0,1-4.158-4.158V8.821a.832.832,0,1,1,1.663,0v2.91a.416.416,0,0,0,.832,0V7.158a.832.832,0,1,1,1.663,0v4.573a.416.416,0,0,0,.832,0v-5.4A.832.832,0,0,1,13.81,5.495Z" transform="translate(5 5)" fill="#3384ff"/>
</svg>
