<svg id="ic_blue_note" xmlns="http://www.w3.org/2000/svg" width="35" height="35" viewBox="0 0 35 35">
  <rect id="Bounds" width="35" height="35" fill="none"/>
  <path id="icons8-note" d="M20.541,3H5.193A2.192,2.192,0,0,0,3,5.193V20.541a2.192,2.192,0,0,0,2.193,2.193H16.156l6.578-6.578V5.193A2.192,2.192,0,0,0,20.541,3ZM8.482,7.385h8.771a1.1,1.1,0,0,1,1.1,1.1h0a1.1,1.1,0,0,1-1.1,1.1H8.482a1.1,1.1,0,0,1-1.1-1.1h0A1.1,1.1,0,0,1,8.482,7.385Zm3.289,6.578H8.482a1.1,1.1,0,0,1-1.1-1.1h0a1.1,1.1,0,0,1,1.1-1.1h3.289a1.1,1.1,0,0,1,1.1,1.1h0A1.1,1.1,0,0,1,11.771,13.963Zm3.289,7.126V15.06h6.03Z" transform="translate(5 5)" fill="#3384ff"/>
</svg>
