<svg id="ic_btn_white_access" xmlns="http://www.w3.org/2000/svg" width="35" height="35" viewBox="0 0 35 35">
  <rect id="Bounds" width="35" height="35" fill="none"/>
  <path id="ic_btn_white_access-2" data-name="ic_btn_white_access" d="M25.319,20.018v2.053c0,4.105-1.1,7.526-7.526,7.526-5.613,0-6.569-2.053-7.387-3.148S5.2,19.2,5.2,19.2a2.023,2.023,0,0,1,.545-2.87,2.029,2.029,0,0,1,2.876.545L10.266,19.2V7.7a1.291,1.291,0,0,1,1.368-1.368A1.291,1.291,0,0,1,13,7.7v7.526c.412-.139.823-.273,1.368-.412V4.966A1.291,1.291,0,0,1,15.74,3.6a1.291,1.291,0,0,1,1.368,1.368v9.579h1.368V5.65a1.368,1.368,0,1,1,2.737,0v9.167c.545.139.957.273,1.368.412V9.071a1.368,1.368,0,0,1,2.737,0Z" transform="translate(2.177 1.402)" fill="#fff"/>
</svg>
