<svg xmlns="http://www.w3.org/2000/svg" width="189.413" height="166.881" viewBox="0 0 189.413 166.881">
  <path id="ic_business_update" d="M11757.185-15217.951a35.871,35.871,0,0,1-11.446-7.713,35.909,35.909,0,0,1-7.717-11.442,35.8,35.8,0,0,1-2.83-14.013,35.8,35.8,0,0,1,2.83-14.014,35.894,35.894,0,0,1,7.717-11.441,35.885,35.885,0,0,1,11.446-7.718,35.78,35.78,0,0,1,14.009-2.829,35.8,35.8,0,0,1,14.014,2.829,35.844,35.844,0,0,1,11.441,7.718,35.835,35.835,0,0,1,7.717,11.441,35.784,35.784,0,0,1,2.826,14.014,35.779,35.779,0,0,1-2.826,14.013,35.893,35.893,0,0,1-7.717,11.442,35.787,35.787,0,0,1-11.441,7.713,35.8,35.8,0,0,1-14.014,2.83A35.781,35.781,0,0,1,11757.185-15217.951Zm-4.992-32.79a3.872,3.872,0,0,0,3.868,3.864h11.593v11.593a3.869,3.869,0,0,0,3.864,3.868,3.869,3.869,0,0,0,3.864-3.868v-11.593h11.6a3.872,3.872,0,0,0,3.868-3.864,3.872,3.872,0,0,0-3.868-3.864h-11.6v-11.6a3.849,3.849,0,0,0-1.131-2.787,3.9,3.9,0,0,0-2.733-1.131h-.054a3.882,3.882,0,0,0-3.811,3.918v11.6h-11.593A3.872,3.872,0,0,0,11752.192-15250.741Zm-113.9,4.034v-40.588h13.531v40.588h70.688l-1.231,13.516-69.456.015A13.53,13.53,0,0,1,11638.292-15246.707Zm142.059-67.646-13.527-27.061h-20.294l6.764,27.061a13.524,13.524,0,0,1-13.53,13.527,13.524,13.524,0,0,1-13.527-13.527v-27.061h-27.061v27.061a13.524,13.524,0,0,1-13.527,13.527,13.524,13.524,0,0,1-13.53-13.527l6.763-27.061h-20.294l-13.526,27.061a13.526,13.526,0,0,1-13.53,13.527,13.527,13.527,0,0,1-13.531-13.527l20.294-27.061v-27.058a13.531,13.531,0,0,1,13.531-13.531h121.764a13.53,13.53,0,0,1,13.53,13.531v27.058l20.294,27.061a13.526,13.526,0,0,1-13.53,13.527A13.524,13.524,0,0,1,11780.351-15314.353Zm-101.471-47.354a6.768,6.768,0,0,0,6.768,6.767,6.767,6.767,0,0,0,6.764-6.767,6.766,6.766,0,0,0-6.764-6.764A6.768,6.768,0,0,0,11678.88-15361.707Zm-27.057,0a6.767,6.767,0,0,0,6.763,6.767,6.768,6.768,0,0,0,6.768-6.767,6.767,6.767,0,0,0-6.768-6.764A6.766,6.766,0,0,0,11651.823-15361.707Z" transform="translate(-11617.998 15382.002)" fill="#3384ff"/>
</svg>
