<svg id="ic_blue_phone" xmlns="http://www.w3.org/2000/svg" width="35" height="35" viewBox="0 0 35 35">
  <rect id="Bounds" width="35" height="35" fill="none"/>
  <path id="ic_blue_phone-2" data-name="ic_blue_phone" d="M16.377-.032a.94.94,0,0,0-.1.025.806.806,0,0,0-.628.8V2.405H8.412A2.413,2.413,0,0,0,6,4.817V18.486A2.413,2.413,0,0,0,8.412,20.9h6.432a2.413,2.413,0,0,0,2.412-2.412V4.943a.838.838,0,0,0,0-.126V.8a.8.8,0,0,0-.879-.829ZM8.01,4.013h7.237a.4.4,0,0,1,.4.4v5.628a.4.4,0,0,1-.4.4H8.01a.4.4,0,0,1-.4-.4V4.415A.4.4,0,0,1,8.01,4.013Z" transform="translate(6 7.036)" fill="#3384ff"/>
</svg>
