<svg id="ic_blue_business_type" xmlns="http://www.w3.org/2000/svg" width="35" height="35" viewBox="0 0 35 35">
  <rect id="Bounds" width="35" height="35" fill="none"/>
  <path id="ic_blue_business_name" d="M4.643,4A1.457,1.457,0,0,0,3.186,5.457V8.372L1,11.286a1.457,1.457,0,0,0,2.915,0L5.372,8.372H7.558l-.729,2.915a1.457,1.457,0,0,0,2.915,0V8.372h2.915v2.915a1.457,1.457,0,0,0,2.915,0l-.729-2.915H17.03l1.457,2.915a1.457,1.457,0,0,0,2.915,0L19.216,8.372V5.457A1.457,1.457,0,0,0,17.759,4Zm.729,1.457a.729.729,0,1,1-.729.729A.729.729,0,0,1,5.372,5.457Zm2.915,0a.729.729,0,1,1-.729.729A.729.729,0,0,1,8.286,5.457ZM3.186,14.2v4.372A1.457,1.457,0,0,0,4.643,20.03h7.481l.132-1.456H4.643V14.2Zm11.526.729a.728.728,0,0,0-.726.662l-.6,6.558a.729.729,0,0,0,.726.8H21.4a.729.729,0,0,0,.726-.8l-.6-6.558a.728.728,0,0,0-.726-.662Zm1.59,1.457a.729.729,0,0,1,.729.729.729.729,0,1,0,1.457,0,.729.729,0,0,1,1.457,0,2.186,2.186,0,1,1-4.372,0A.729.729,0,0,1,16.3,16.387Z" transform="translate(6 4)" fill="#3384ff"/>
</svg>
