<svg id="ic_blue_unit" xmlns="http://www.w3.org/2000/svg" width="35" height="35" viewBox="0 0 35 35">
  <rect id="Bounds" width="35" height="35" fill="none"/>
  <path id="ic_blue_unit-2" data-name="ic_blue_unit" d="M17.941,9.34a7.734,7.734,0,0,1-.286-2.012,5.736,5.736,0,0,1,.593-2.12.667.667,0,0,0-.093-.744l-1.092-1.24A.666.666,0,0,0,16.584,3a.645.645,0,0,0-.492.194,3.117,3.117,0,0,1-1.964.544,2.873,2.873,0,0,1-2-.544.665.665,0,0,0-.942,0,2.919,2.919,0,0,1-2,.544,3.121,3.121,0,0,1-1.964-.544A.638.638,0,0,0,6.736,3a.664.664,0,0,0-.479.225L5.166,4.464a.668.668,0,0,0-.093.745,5.589,5.589,0,0,1,.593,2.119A7.723,7.723,0,0,1,5.384,9.3,11.6,11.6,0,0,0,5,12.288c0,4.91,6.226,6.6,6.491,6.675a.667.667,0,0,0,.34,0c.264-.07,6.491-1.765,6.491-6.675A11.309,11.309,0,0,0,17.941,9.34Zm-3.278,1.316-1.274,1.12.355,1.736a.4.4,0,0,1-.593.418l-1.49-.9-1.5.867a.4.4,0,0,1-.587-.424l.354-1.7-1.274-1.12a.4.4,0,0,1,.226-.693l1.7-.155L11.3,8.228a.4.4,0,0,1,.723,0l.712,1.581,1.7.155A.4.4,0,0,1,14.663,10.657Z" transform="translate(5.886 6.268)" fill="#3384ff"/>
</svg>
