<svg id="ic_blue_business_code" xmlns="http://www.w3.org/2000/svg" width="35" height="35" viewBox="0 0 35 35">
  <rect id="Bounds" width="35" height="35" fill="none"/>
  <path id="icons8-barcode" d="M4.72,3.986A.731.731,0,0,0,4,4.727V19.349a.731.731,0,1,0,1.462,0V4.727a.731.731,0,0,0-.742-.741Zm2.924,0a.731.731,0,0,0-.72.741V19.349a.731.731,0,1,0,1.462,0V4.727a.731.731,0,0,0-.742-.741Zm11.7,0a.731.731,0,0,0-.72.741V19.349a.731.731,0,1,0,1.462,0V4.727a.731.731,0,0,0-.742-.741ZM10.58,4a.731.731,0,0,0-.731.731V19.349a.731.731,0,0,0,.731.731h2.193a.731.731,0,0,0,.731-.731V4.727A.731.731,0,0,0,12.773,4ZM15.7,4a.731.731,0,0,0-.731.731V19.349a.731.731,0,0,0,.731.731h.731a.731.731,0,0,0,.731-.731V4.727A.731.731,0,0,0,16.428,4Z" transform="translate(5 5.014)" fill="#3384ff"/>
</svg>
