<svg id="ic_blue_role_name" xmlns="http://www.w3.org/2000/svg" width="35" height="35" viewBox="0 0 35 35">
  <rect id="Bounds" width="35" height="35" fill="none"/>
  <path id="Union_32" data-name="Union 32" d="M-4670.074-3909a.256.256,0,0,1-.254-.227l-.118-1.024a3.986,3.986,0,0,1-1.311-.761l-.946.409a.252.252,0,0,1-.321-.107l-.945-1.639a.257.257,0,0,1,.069-.334l.813-.606a4.119,4.119,0,0,1-.076-.769,4.125,4.125,0,0,1,.076-.769l-.812-.606a.257.257,0,0,1-.069-.333l.945-1.64a.254.254,0,0,1,.321-.109l.946.411a4,4,0,0,1,1.311-.761l.118-1.023a.256.256,0,0,1,.254-.227h1.887a.257.257,0,0,1,.254.227l.118,1.023a4.007,4.007,0,0,1,1.311.761l.943-.411a.257.257,0,0,1,.323.109l.943,1.64a.255.255,0,0,1-.068.333l-.815.606a3.967,3.967,0,0,1,.079.769,3.961,3.961,0,0,1-.079.769l.815.606a.257.257,0,0,1,.068.334l-.943,1.639a.256.256,0,0,1-.323.109l-.943-.411a4.006,4.006,0,0,1-1.311.761l-.118,1.024a.258.258,0,0,1-.254.227Zm-1.073-5.058a2.021,2.021,0,0,0,2.017,2.023,2.021,2.021,0,0,0,2.016-2.023,2.02,2.02,0,0,0-2.016-2.022A2.02,2.02,0,0,0-4671.147-3914.058ZM-4683-3911.6c0-4.784,5.451-3.417,6.132-5.467v-1.367a3.567,3.567,0,0,1-1.275-2.017c-.241-.019-.62-.242-.732-1.119a.8.8,0,0,1,.323-.819,4.078,4.078,0,0,1-.359-1.512,3.754,3.754,0,0,1,4.087-4.1,2.167,2.167,0,0,1,2.044,1.026c1.394,0,2.043,1.416,2.043,3.076a3.619,3.619,0,0,1-.359,1.512.8.8,0,0,1,.321.819c-.111.877-.491,1.1-.732,1.119a1.8,1.8,0,0,1-.1.392,6.148,6.148,0,0,0-3.9,5.725,6.128,6.128,0,0,0,.645,2.733Z" transform="translate(4691.001 3936)" fill="#3384ff"/>
</svg>
