<svg xmlns="http://www.w3.org/2000/svg" width="140.413" height="128.881" viewBox="0 0 140.413 128.881">
  <path id="ic_business_manage" d="M11721.031-15255.217a26.63,26.63,0,0,1-8.484-5.719,26.592,26.592,0,0,1-5.718-8.482,26.523,26.523,0,0,1-2.1-10.385,26.523,26.523,0,0,1,2.1-10.385,26.578,26.578,0,0,1,5.718-8.484,26.662,26.662,0,0,1,8.484-5.719,26.545,26.545,0,0,1,10.388-2.1,26.553,26.553,0,0,1,10.389,2.1,26.621,26.621,0,0,1,8.482,5.719,26.61,26.61,0,0,1,5.718,8.484,26.523,26.523,0,0,1,2.1,10.385,26.523,26.523,0,0,1-2.1,10.385,26.624,26.624,0,0,1-5.718,8.482,26.621,26.621,0,0,1-8.482,5.719,26.551,26.551,0,0,1-10.389,2.1A26.543,26.543,0,0,1,11721.031-15255.217Zm5.681-12.666.541,2.764a1.617,1.617,0,0,0,1.583,1.307h4.876a1.621,1.621,0,0,0,1.586-1.307l.537-2.764a12.848,12.848,0,0,0,3.629-2.09l2.656.916a1.574,1.574,0,0,0,.526.09,1.615,1.615,0,0,0,1.4-.809l2.435-4.227a1.615,1.615,0,0,0-.334-2.021l-2.132-1.85a12.875,12.875,0,0,0,.183-2.088,12.889,12.889,0,0,0-.183-2.086l2.132-1.848a1.622,1.622,0,0,0,.334-2.029l-2.435-4.225a1.616,1.616,0,0,0-1.4-.8,1.646,1.646,0,0,0-.526.084l-2.656.916a12.905,12.905,0,0,0-3.629-2.082l-.537-2.768a1.623,1.623,0,0,0-1.586-1.309h-4.876a1.619,1.619,0,0,0-1.583,1.309l-.541,2.768a12.994,12.994,0,0,0-3.629,2.086l-2.655-.916a1.594,1.594,0,0,0-.523-.086,1.629,1.629,0,0,0-1.4.8l-2.435,4.225a1.623,1.623,0,0,0,.338,2.029l2.129,1.848a12.889,12.889,0,0,0-.183,2.086,12.875,12.875,0,0,0,.183,2.088l-2.129,1.85a1.617,1.617,0,0,0-.338,2.025l2.435,4.223a1.625,1.625,0,0,0,1.4.811,1.534,1.534,0,0,0,.521-.09l2.655-.914A12.937,12.937,0,0,0,11726.712-15267.883Zm-93.67-13.838v-30.084h10.031v30.084h52.4l-.913,10.018-51.487.012A10.03,10.03,0,0,1,11633.042-15281.721Zm91.772,1.76a6.467,6.467,0,0,1,6.459-6.461,6.469,6.469,0,0,1,6.462,6.461,6.468,6.468,0,0,1-6.462,6.461A6.465,6.465,0,0,1,11724.814-15279.961Zm13.536-51.9-10.027-20.059h-15.044l5.014,20.059a10.024,10.024,0,0,1-10.03,10.025,10.024,10.024,0,0,1-10.027-10.025v-20.059h-20.061v20.059a10.024,10.024,0,0,1-10.028,10.025,10.023,10.023,0,0,1-10.029-10.025l5.013-20.059h-15.044l-10.027,20.059a10.026,10.026,0,0,1-10.03,10.025,10.026,10.026,0,0,1-10.03-10.025l15.044-20.059v-20.055a10.03,10.03,0,0,1,10.031-10.029h90.264a10.029,10.029,0,0,1,10.03,10.029v20.055l15.044,20.059a10.026,10.026,0,0,1-10.03,10.025A10.024,10.024,0,0,1,11738.351-15331.859Zm-75.221-35.1a5.017,5.017,0,0,0,5.017,5.016,5.017,5.017,0,0,0,5.015-5.016,5.016,5.016,0,0,0-5.015-5.014A5.017,5.017,0,0,0,11663.13-15366.959Zm-20.057,0a5.016,5.016,0,0,0,5.013,5.016,5.017,5.017,0,0,0,5.017-5.016,5.016,5.016,0,0,0-5.017-5.014A5.015,5.015,0,0,0,11643.073-15366.959Z" transform="translate(-11617.998 15382.002)" fill="#3384ff"/>
</svg>
