<svg id="ic_blue_location" xmlns="http://www.w3.org/2000/svg" width="35" height="35" viewBox="0 0 35 35">
  <rect id="Bounds" width="35" height="35" fill="none"/>
  <path id="ic_blue_location-2" data-name="ic_blue_location" d="M10.676,2A5.339,5.339,0,0,0,5.337,7.339c0,4,4.672,5.339,4.672,8.008a.667.667,0,1,0,1.335,0c0-2.669,4.672-4,4.672-8.008A5.339,5.339,0,0,0,10.676,2Zm0,4A1.335,1.335,0,1,1,9.341,7.339,1.334,1.334,0,0,1,10.676,6Zm-3.75,6.979C4.153,13.457,2,14.477,2,16.015c0,2.19,4.365,3.337,8.676,3.337s8.676-1.147,8.676-3.337c0-1.538-2.153-2.558-4.926-3.032l-.163.16c-.365.36-.7.7-.978,1.018,3.078.362,4.732,1.312,4.732,1.854,0,.68-2.591,2-7.341,2s-7.341-1.322-7.341-2c0-.542,1.654-1.491,4.732-1.854-.274-.32-.613-.658-.978-1.018Z" transform="translate(7 7)" fill="#3384ff"/>
</svg>
