<svg id="ic_blue_infringe" xmlns="http://www.w3.org/2000/svg" width="35" height="35" viewBox="0 0 35 35">
  <rect id="Bounds" width="35" height="35" fill="none"/>
  <path id="icons8-privacy_policy" d="M5.96,2A1.966,1.966,0,0,0,4,3.96V19.641A1.966,1.966,0,0,0,5.96,21.6H13.8a8.025,8.025,0,0,1-.98-3.92H7.92v-1.96h4.9v-1.96H7.92V11.8h7.841v.362L18.4,10.987a2,2,0,0,1,1.284-.107v-3L13.8,2Zm6.86,1.47,5.39,5.39h-5.39Zm6.37,9.311-4.41,1.96v2.94a6.086,6.086,0,0,0,4.41,5.88,6.086,6.086,0,0,0,4.41-5.88v-2.94Z" transform="translate(3.474 4.521)" fill="#3384ff"/>
</svg>
