<svg id="ic_blue_business_name" xmlns="http://www.w3.org/2000/svg" width="30" height="30" viewBox="0 0 30 30">
  <rect id="Bounds" width="30" height="30" fill="none"/>
  <path id="ic_blue_business_type" d="M4.294,3V7.587L2,13.322v2.294H3.147v8.028H14.616V15.616H21.5v8.028H23.79V15.616h1.147V13.322L22.644,7.587V3ZM7.734,5.294A1.147,1.147,0,1,1,6.587,6.441,1.147,1.147,0,0,1,7.734,5.294Zm3.441,0a1.147,1.147,0,1,1-1.147,1.147A1.147,1.147,0,0,1,11.175,5.294ZM5.441,15.616h6.881V21.35H5.441Z" transform="translate(2 2)" fill="#3384ff"/>
</svg>
