<svg id="ic_btn_white_excel" xmlns="http://www.w3.org/2000/svg" width="35" height="35" viewBox="0 0 35 35">
  <rect id="Bounds" width="35" height="35" fill="none"/>
  <path id="ic_btn_excel" d="M15.5,3a2.083,2.083,0,0,0-.417.045l0,0L4.7,5.12l0,0A2.083,2.083,0,0,0,3,7.167V23.833A2.083,2.083,0,0,0,4.7,25.88l10.385,2.077a2.083,2.083,0,0,0,2.5-2.041V5.083A2.083,2.083,0,0,0,15.5,3Zm4.167,2.083V8.208H21.75v2.083H19.667v2.083H21.75v2.083H19.667v2.083H21.75v2.083H19.667v2.083H21.75v2.083H19.667v3.125h6.25A2.083,2.083,0,0,0,28,23.833V7.167a2.083,2.083,0,0,0-2.083-2.083Zm4.167,3.125h1.042a1.042,1.042,0,1,1,0,2.083H23.833ZM6.318,10.292h2.5l1.3,3.115a6.115,6.115,0,0,1,.271.883h.035a9.286,9.286,0,0,1,.281-.907l1.449-3.09H14.43l-2.722,5.162,2.8,5.253H12.08l-1.567-3.394a2.92,2.92,0,0,1-.187-.7H10.3c-.035.16-.105.4-.212.724L8.516,20.708H6.072l2.9-5.214Zm17.515,2.083h1.042a1.042,1.042,0,1,1,0,2.083H23.833Zm0,4.167h1.042a1.042,1.042,0,1,1,0,2.083H23.833Zm0,4.167h1.042a1.042,1.042,0,1,1,0,2.083H23.833Z" transform="translate(2 2.313)" fill="#fff"/>
</svg>
