<svg id="ic_btn_white_delete" xmlns="http://www.w3.org/2000/svg" width="35" height="35" viewBox="0 0 35 35">
  <rect id="Bounds" width="35" height="35" fill="none"/>
  <path id="ic_btn_white_delete-2" data-name="ic_btn_white_delete" d="M11.8,2,10.5,3.3H5.3A1.228,1.228,0,0,0,4,4.6,1.228,1.228,0,0,0,5.3,5.9H23.5a1.228,1.228,0,0,0,1.3-1.3,1.228,1.228,0,0,0-1.3-1.3H18.3L17,2ZM5.3,8.5V25.4A2.608,2.608,0,0,0,7.9,28h13a2.608,2.608,0,0,0,2.6-2.6V8.5Zm5.2,2.6a1.228,1.228,0,0,1,1.3,1.3V24.1a1.228,1.228,0,0,1-1.3,1.3,1.228,1.228,0,0,1-1.3-1.3V12.4A1.228,1.228,0,0,1,10.5,11.1Zm7.8,0a1.228,1.228,0,0,1,1.3,1.3V24.1a1.3,1.3,0,0,1-2.6,0V12.4A1.228,1.228,0,0,1,18.3,11.1Z" transform="translate(3 3)" fill="#fff"/>
</svg>
