<svg xmlns="http://www.w3.org/2000/svg" width="116.433" height="128.846" viewBox="0 0 116.433 128.846">
  <g id="ic_business_process" transform="translate(-672.001 -911.152)">
    <path id="Subtraction_14" data-name="Subtraction 14" d="M78.154,111.65H33.525a35.3,35.3,0,0,0,1.2-9.137A34.99,34.99,0,0,0,32,88.914a35.085,35.085,0,0,0-7.431-11.136A35.1,35.1,0,0,0,13.534,70.21,34.958,34.958,0,0,0,0,67.313V11.165A11.2,11.2,0,0,1,11.165,0H51.2A11.168,11.168,0,0,1,59.1,3.271L86.048,30.224a11.168,11.168,0,0,1,3.271,7.893v62.367A11.2,11.2,0,0,1,78.154,111.65ZM50.242,8.374h0v30.7h30.7l-30.7-30.7Z" transform="translate(699.114 911.152)" fill="#3384ff"/>
    <path id="Subtraction_15" data-name="Subtraction 15" d="M27.137,0A27.22,27.22,0,0,0,7.948,7.852a26.716,26.716,0,0,0-5.816,8.522,26.61,26.61,0,0,0,0,20.872,26.712,26.712,0,0,0,5.816,8.522A27.422,27.422,0,0,0,37.7,51.514a27.068,27.068,0,0,0,8.627-5.746,26.7,26.7,0,0,0,5.816-8.522,26.6,26.6,0,0,0,0-20.872,26.706,26.706,0,0,0-5.816-8.522A27.223,27.223,0,0,0,27.137,0ZM12.521,28.042a3.027,3.027,0,0,1-1.754-.569,3,3,0,0,1-.827-4.293c.065-.09,6.635-9.218,7.874-10.847.1-.132.2-.273.307-.423a8.239,8.239,0,0,1,2.964-2.778C22.964,8.117,25.552,7.623,29,7.623c4.505,0,7.563,1.088,9.346,3.326a8.73,8.73,0,0,1,1.635,3.582,19.592,19.592,0,0,1,.412,4.349V38.32a2.028,2.028,0,0,1-.569,1.485,2.29,2.29,0,0,1-3.006,0,2.028,2.028,0,0,1-.568-1.485V29.111c-.544.182-1.2.395-2.071.616V43.436a2.029,2.029,0,0,1-.569,1.485,2.293,2.293,0,0,1-3.006,0,2.031,2.031,0,0,1-.569-1.485v-13.3h-2.07V44.46a2.027,2.027,0,0,1-.569,1.485,2.292,2.292,0,0,1-3.006,0,2.027,2.027,0,0,1-.568-1.485V29.727c-.859-.216-1.494-.423-2.073-.616V40.368a2.03,2.03,0,0,1-.568,1.485,2.292,2.292,0,0,1-3.006,0,2.027,2.027,0,0,1-.568-1.485V23.18L15.12,26.658a3.433,3.433,0,0,1-1.17,1.026A3.078,3.078,0,0,1,12.521,28.042Z" transform="translate(726.276 1039.998) rotate(180)" fill="#3484ff"/>
  </g>
</svg>
