<svg id="ic_blue_password" xmlns="http://www.w3.org/2000/svg" width="35" height="35" viewBox="0 0 35 35">
  <rect id="Bounds" width="35" height="35" fill="none"/>
  <path id="ic_blue_password-2" data-name="ic_blue_password" d="M10.735,0A6.337,6.337,0,0,0,5.846,1.861,6.453,6.453,0,0,0,4.382,6.278v.869H6.765V6.278a4.127,4.127,0,0,1,.844-2.829,3.883,3.883,0,0,1,3.127-1.067,3.9,3.9,0,0,1,3.127,1.042,4.181,4.181,0,0,1,.844,2.854v.869h2.382V6.278a6.481,6.481,0,0,0-1.464-4.442A6.346,6.346,0,0,0,10.735,0ZM4.382,7.941A2.383,2.383,0,0,0,2,10.323v7.941a2.383,2.383,0,0,0,2.382,2.382H17.088a2.383,2.383,0,0,0,2.382-2.382V10.323a2.383,2.383,0,0,0-2.382-2.382ZM5.97,12.706a1.588,1.588,0,1,1-1.588,1.588A1.587,1.587,0,0,1,5.97,12.706Zm4.765,0a1.588,1.588,0,1,1-1.588,1.588A1.587,1.587,0,0,1,10.735,12.706Zm4.765,0a1.588,1.588,0,1,1-1.588,1.588A1.587,1.587,0,0,1,15.5,12.706Z" transform="translate(6.842 7.177)" fill="#3384ff"/>
</svg>
