<svg id="ic_blue_officer" xmlns="http://www.w3.org/2000/svg" width="35" height="35" viewBox="0 0 35 35">
  <rect id="Bounds" width="35" height="35" fill="none"/>
  <path id="ic_blue_officer-2" data-name="ic_blue_officer" d="M12.791,3C10.733,3,8.113,6.2,4.8,6.2a.8.8,0,0,0-.735,1.111A8.02,8.02,0,0,0,5.6,9.394H19.984a8.053,8.053,0,0,0,1.533-2.081A.8.8,0,0,0,20.784,6.2C17.47,6.2,14.85,3,12.791,3Zm-1.2,2.4h2.4a3,3,0,0,1-1.2,2.4A3,3,0,0,1,11.593,5.4ZM5.6,10.992v5.435a2.852,2.852,0,0,0,.912,2.159,1.41,1.41,0,0,0,.595.326,6.131,6.131,0,0,0,5.6,4.063.892.892,0,0,0,.183,0,6.132,6.132,0,0,0,5.593-4.063,1.41,1.41,0,0,0,.595-.326,2.852,2.852,0,0,0,.912-2.159V10.992Zm12.661,2.132a20.561,20.561,0,0,1,.126,2.663v.64a1.094,1.094,0,0,1-.367.957.812.812,0,0,1-.306.186l-.426.106-.139.415s-1.053,3.291-4.357,3.291-4.357-3.291-4.357-3.291L8.3,17.676,7.87,17.57a.812.812,0,0,1-.306-.186,1.094,1.094,0,0,1-.367-.957v-.983a5.114,5.114,0,0,1,.376-2.093c1.042.945,3.024,2.437,5.218,2.437C15.162,15.787,17.306,14.033,18.259,13.124Z" transform="translate(5 5)" fill="#3384ff"/>
</svg>
