<svg id="ic_blue_status" xmlns="http://www.w3.org/2000/svg" width="35" height="35" viewBox="0 0 35 35">
  <rect id="Bounds" width="35" height="35" fill="none"/>
  <path id="ic_blue_status-2" data-name="ic_blue_status" d="M11.782,3a36.235,36.235,0,0,0-6.642.734l0,0A1.415,1.415,0,0,0,4,5.122V9.367C4,16.723,11.09,19.8,11.09,19.8a1.409,1.409,0,0,0,1.382,0h0s7.09-3.075,7.09-10.431V5.122a1.415,1.415,0,0,0-1.14-1.389A36.235,36.235,0,0,0,11.782,3Zm0,2.83a2.833,2.833,0,0,1,2.83,2.83,3.29,3.29,0,0,1-1.367,2.476c-.468.432-.756.716-.756,1.061H11.074a2.894,2.894,0,0,1,1.21-2.1c.565-.522.912-.87.912-1.436a1.415,1.415,0,0,0-2.83,0H8.952A2.833,2.833,0,0,1,11.782,5.83Zm0,8.136a1.061,1.061,0,1,1-1.061,1.061A1.062,1.062,0,0,1,11.782,13.965Z" transform="translate(6 6)" fill="#3384ff"/>
</svg>
