<svg id="ic_blue_people" xmlns="http://www.w3.org/2000/svg" width="35" height="35" viewBox="0 0 35 35">
  <rect id="Bounds" width="35" height="35" fill="none"/>
  <path id="ic_blue_people-2" data-name="ic_blue_people" d="M6.154,3A3.57,3.57,0,0,0,2.591,6.887a3.869,3.869,0,0,0,.342,1.435.757.757,0,0,0-.306.776c.106.831.467,1.041.7,1.059a3.383,3.383,0,0,0,1.212,1.913v1.3C3.887,15.308,0,14.012,0,18.546H5.83c0-2.705,1.207-3.894,2.386-4.539a1.434,1.434,0,0,1-.443-.643v-1.3A3.534,3.534,0,0,0,8.9,10.518a3.033,3.033,0,0,1-.43-1.258,2.177,2.177,0,0,1,.144-1.136,4.565,4.565,0,0,1-.19-1.237,5.754,5.754,0,0,1,.517-2.434,1.589,1.589,0,0,0-1.165-.481A1.508,1.508,0,0,0,6.154,3Zm7.125,0A3.568,3.568,0,0,0,9.717,6.887a3.869,3.869,0,0,0,.342,1.435.757.757,0,0,0-.306.776c.106.831.467,1.041.7,1.059a3.383,3.383,0,0,0,1.212,1.913v1.3c-.648,1.943-4.534.648-4.534,5.182H19.433c0-4.534-3.887-3.239-4.534-5.182v-1.3a3.381,3.381,0,0,0,1.212-1.912c.229-.017.59-.229.7-1.06a.757.757,0,0,0-.306-.776,3.426,3.426,0,0,0,.342-1.433c0-1.573-.617-2.915-1.943-2.915A1.508,1.508,0,0,0,13.279,3Z" transform="translate(7.908 6.727)" fill="#3384ff"/>
</svg>
