<svg id="ic_blue_permission" xmlns="http://www.w3.org/2000/svg" width="35" height="35" viewBox="0 0 35 35">
  <rect id="Bounds" width="35" height="35" fill="none"/>
  <path id="ic_blue_permission_" data-name="ic_blue_permission " d="M19.929,7.146,15.005,2.222A.757.757,0,0,0,14.469,2H6.515A1.515,1.515,0,0,0,5,3.515V20.181A1.515,1.515,0,0,0,6.515,21.7H18.636a1.515,1.515,0,0,0,1.515-1.515V7.682A.757.757,0,0,0,19.929,7.146Zm-5.617,4.48a.757.757,0,0,1,1.071-1.071l.6.6.6-.6a.757.757,0,0,1,1.071,1.071l-.6.6.6.6A.757.757,0,1,1,16.585,13.9l-.6-.6-.6.6a.757.757,0,1,1-1.071-1.071l.6-.6ZM8.03,17.909H7.273a.758.758,0,1,1,0-1.515H8.03a.758.758,0,1,1,0,1.515Zm0-5.3H7.273a.758.758,0,0,1,0-1.515H8.03a.758.758,0,0,1,0,1.515Zm3.788,5.3H11.06a.758.758,0,0,1,0-1.515h.758a.758.758,0,0,1,0,1.515Zm0-5.3H11.06a.758.758,0,0,1,0-1.515h.758a.758.758,0,0,1,0,1.515Zm6.6,4.323L16.141,19.2a.757.757,0,0,1-1.071,0l-.758-.758a.757.757,0,0,1,1.071-1.071l.222.222,1.737-1.737a.757.757,0,0,1,1.071,1.071ZM14.848,8.06a.758.758,0,0,1-.758-.758V3.442L18.709,8.06Z" transform="translate(5 6)" fill="#3384ff"/>
</svg>
