<svg xmlns="http://www.w3.org/2000/svg" width="18.919" height="18.919" viewBox="0 0 18.919 18.919">
  <path id="ic_calendar" d="M21.2,4H5.72A1.719,1.719,0,0,0,4,5.72V21.2a1.719,1.719,0,0,0,1.72,1.72H21.2a1.719,1.719,0,0,0,1.72-1.72V5.72A1.719,1.719,0,0,0,21.2,4ZM6.58,20.339a.86.86,0,1,1,.86-.86A.86.86,0,0,1,6.58,20.339Zm0-3.44a.86.86,0,1,1,.86-.86A.86.86,0,0,1,6.58,16.9Zm3.44,3.44a.86.86,0,1,1,.86-.86A.86.86,0,0,1,10.02,20.339Zm0-3.44a.86.86,0,1,1,.86-.86A.86.86,0,0,1,10.02,16.9Zm0-3.44a.86.86,0,1,1,.86-.86A.86.86,0,0,1,10.02,13.459Zm3.44,6.879a.86.86,0,1,1,.86-.86A.86.86,0,0,1,13.459,20.339Zm0-3.44a.86.86,0,1,1,.86-.86A.86.86,0,0,1,13.459,16.9Zm0-3.44a.86.86,0,1,1,.86-.86A.86.86,0,0,1,13.459,13.459Zm3.44,6.879a.86.86,0,1,1,.86-.86A.86.86,0,0,1,16.9,20.339Zm0-3.44a.86.86,0,1,1,.86-.86A.86.86,0,0,1,16.9,16.9Zm-.86-4.3a.86.86,0,1,1,.86.86A.86.86,0,0,1,16.039,12.6Zm4.3,4.3a.86.86,0,1,1,.86-.86A.86.86,0,0,1,20.339,16.9Zm0-3.44a.86.86,0,1,1,.86-.86A.86.86,0,0,1,20.339,13.459Zm.86-4.3H5.72V5.72H21.2Z" transform="translate(-4 -4)" fill="#748aa1"/>
</svg>
