<svg id="ic_manage" xmlns="http://www.w3.org/2000/svg" width="35" height="35" viewBox="0 0 35 35">
  <rect id="Bounds" width="35" height="35" fill="none"/>
  <g id="XMLID_21_" transform="translate(9.094 9.175)">
    <path id="XMLID_22_" d="M82.708.178a.606.606,0,0,0-.858,0L75.178,6.85A.606.606,0,0,0,75,7.279V9.706a.607.607,0,0,0,.607.607h2.426a.607.607,0,0,0,.429-.178l6.673-6.673a.607.607,0,0,0,0-.858Z" transform="translate(-68.961 0.084)" fill="#fff"/>
    <path id="XMLID_23_" d="M15.688,7.47a.747.747,0,0,0-.747.747v6.723H1.494V1.494H8.217A.747.747,0,0,0,8.217,0H.747A.747.747,0,0,0,0,.747V15.688a.747.747,0,0,0,.747.747H15.688a.747.747,0,0,0,.747-.747V8.217A.747.747,0,0,0,15.688,7.47Z" transform="translate(0 0)" fill="#fff"/>
  </g>
</svg>
