<svg xmlns="http://www.w3.org/2000/svg" width="18.122" height="22.652" viewBox="0 0 18.122 22.652">
  <path id="ic_notification_delete" d="M10.8,2,9.663,3.133H5.133A1.07,1.07,0,0,0,4,4.265,1.07,1.07,0,0,0,5.133,5.4H20.989a1.07,1.07,0,0,0,1.133-1.133,1.07,1.07,0,0,0-1.133-1.133h-4.53L15.326,2ZM5.133,7.663V22.387A2.272,2.272,0,0,0,7.4,24.652H18.724a2.272,2.272,0,0,0,2.265-2.265V7.663Zm4.53,2.265A1.07,1.07,0,0,1,10.8,11.061V21.254a1.07,1.07,0,0,1-1.133,1.133A1.07,1.07,0,0,1,8.53,21.254V11.061A1.07,1.07,0,0,1,9.663,9.928Zm6.8,0a1.07,1.07,0,0,1,1.133,1.133V21.254a1.133,1.133,0,1,1-2.265,0V11.061A1.07,1.07,0,0,1,16.459,9.928Z" transform="translate(-4 -2)" fill="#818181"/>
</svg>
