<svg id="ic_notification_delete_blue" xmlns="http://www.w3.org/2000/svg" width="35" height="35" viewBox="0 0 35 35">
  <rect id="Bounds" width="35" height="35" fill="none"/>
  <path id="ic_notification_delete_blue-2" data-name="ic_notification_delete_blue" d="M9.038,2l-.84.84H4.84a.793.793,0,0,0-.84.84.793.793,0,0,0,.84.84H16.595a.793.793,0,0,0,.84-.84.793.793,0,0,0-.84-.84H13.236L12.4,2ZM4.84,6.2V17.114a1.684,1.684,0,0,0,1.679,1.679h8.4a1.684,1.684,0,0,0,1.679-1.679V6.2ZM8.2,7.878a.793.793,0,0,1,.84.84v7.557a.793.793,0,0,1-.84.84.793.793,0,0,1-.84-.84V8.717A.793.793,0,0,1,8.2,7.878Zm5.038,0a.793.793,0,0,1,.84.84v7.557a.84.84,0,1,1-1.679,0V8.717A.793.793,0,0,1,13.236,7.878Z" transform="translate(7.283 7.104)" fill="#3384ff"/>
</svg>
