<svg id="ic_notification_check_all" xmlns="http://www.w3.org/2000/svg" width="35" height="35" viewBox="0 0 35 35">
  <rect id="Bounds" width="35" height="35" fill="none"/>
  <path id="ic_notification_check_all-2" data-name="ic_notification_check_all" d="M5.49,4A1.49,1.49,0,0,0,4,5.49V15.922a1.49,1.49,0,0,0,1.49,1.49H15.922a1.49,1.49,0,0,0,1.49-1.49V5.49A1.49,1.49,0,0,0,15.922,4Zm9.687,2.98A.745.745,0,0,1,15.7,8.252L10.07,13.886a.745.745,0,0,1-1.054,0L6.443,11.313A.745.745,0,0,1,7.5,10.259l2.046,2.046L14.65,7.2A.742.742,0,0,1,15.177,6.98Zm3.726,0v8.941a2.981,2.981,0,0,1-2.98,2.98H6.98a1.49,1.49,0,0,0,1.49,1.49H18.9a1.49,1.49,0,0,0,1.49-1.49V8.471A1.49,1.49,0,0,0,18.9,6.98Z" transform="translate(5.804 5.804)" fill="#3384ff"/>
</svg>
