<svg id="ic_notification_hide" xmlns="http://www.w3.org/2000/svg" width="35" height="35" viewBox="0 0 35 35">
  <rect id="Bounds" width="35" height="35" fill="none"/>
  <path id="ic_notification_hide-2" data-name="ic_notification_hide" d="M3.806,2.793,2.568,4.03l2,2A12.835,12.835,0,0,0,1,10.847s2.624,7,9.623,7a9.283,9.283,0,0,0,4.586-1.176L17.44,18.9l1.237-1.237Zm6.817,1.056A9.439,9.439,0,0,0,7.751,4.3l2.24,2.24a4.3,4.3,0,0,1,.632-.063A4.374,4.374,0,0,1,15,10.847a4.3,4.3,0,0,1-.063.632l3,3a12.89,12.89,0,0,0,2.312-3.632S17.621,3.849,10.623,3.849ZM6.978,8.44l1.28,1.28A2.578,2.578,0,0,0,8,10.847a2.624,2.624,0,0,0,2.624,2.624,2.578,2.578,0,0,0,1.128-.26l1.28,1.28A4.365,4.365,0,0,1,6.978,8.44Z" transform="translate(6.715 7.153)" fill="#3384ff"/>
</svg>
