<svg xmlns="http://www.w3.org/2000/svg" width="15" height="15" viewBox="0 0 15 15">
  <g id="ic_password_visible" transform="translate(-0.308 -0.043)">
    <rect id="Bounds" width="15" height="15" transform="translate(0.308 0.043)" fill="none"/>
    <g id="visibility" transform="translate(1.974 3.71)">
      <g id="Group_2370" data-name="Group 2370">
        <g id="Group_2369" data-name="Group 2369">
          <path id="Path_4349" data-name="Path 4349" d="M172.266,170.667a1.6,1.6,0,1,0,1.6,1.6A1.6,1.6,0,0,0,172.266,170.667Z" transform="translate(-166.404 -168.269)" fill="#6a6a6a"/>
          <path id="Path_4350" data-name="Path 4350" d="M5.862,74.667a6.3,6.3,0,0,0-5.862,4,6.3,6.3,0,0,0,11.724,0A6.3,6.3,0,0,0,5.862,74.667Zm0,6.661a2.665,2.665,0,1,1,2.665-2.665A2.666,2.666,0,0,1,5.862,81.328Z" transform="translate(0 -74.667)" fill="#6a6a6a"/>
        </g>
      </g>
    </g>
  </g>
</svg>
