<svg xmlns="http://www.w3.org/2000/svg" width="15" height="15" viewBox="0 0 15 15">
  <g id="ic_password_invisible" transform="translate(-0.308 -0.043)">
    <rect id="Bounds" width="15" height="15" transform="translate(0.308 0.043)" fill="none"/>
    <g id="invisible" transform="translate(1.974 2.94)">
      <g id="Group_2372" data-name="Group 2372">
        <g id="Group_2371" data-name="Group 2371">
          <path id="Path_4351" data-name="Path 4351" d="M231.147,160.061l1.678,1.678.008-.088a1.6,1.6,0,0,0-1.6-1.6Z" transform="translate(-225.374 -156.856)" fill="#6a6a6a"/>
          <path id="Path_4352" data-name="Path 4352" d="M151.778,65.386a2.665,2.665,0,0,1,2.664,2.664,2.622,2.622,0,0,1-.189.972l1.558,1.558a6.327,6.327,0,0,0,1.83-2.531,6.3,6.3,0,0,0-5.863-4,6.231,6.231,0,0,0-2.123.373l1.151,1.148A2.677,2.677,0,0,1,151.778,65.386Z" transform="translate(-145.917 -63.255)" fill="#6a6a6a"/>
          <path id="Path_4353" data-name="Path 4353" d="M.533,32.732l1.215,1.215.242.242A6.31,6.31,0,0,0,0,36.848a6.294,6.294,0,0,0,8.2,3.546l.226.226,1.553,1.556.679-.677L1.212,32.053Zm2.946,2.944L4.3,36.5a1.688,1.688,0,0,0-.04.349,1.6,1.6,0,0,0,1.6,1.6,1.642,1.642,0,0,0,.346-.04l.823.823a2.621,2.621,0,0,1-1.169.282,2.646,2.646,0,0,1-2.382-3.836Z" transform="translate(0 -32.053)" fill="#6a6a6a"/>
        </g>
      </g>
    </g>
  </g>
</svg>
