<svg id="ic_slide_home_inactive" xmlns="http://www.w3.org/2000/svg" width="40" height="40" viewBox="0 0 40 40">
  <rect id="Bounds" width="40" height="40" fill="none"/>
  <path id="icons8-home" d="M10.545,2a.868.868,0,0,0-.617.258L1.176,9.894a.434.434,0,0,0,.258.783H3.6v6.942a.868.868,0,0,0,.868.868H7.942a.868.868,0,0,0,.868-.868V12.413h3.471v5.206a.868.868,0,0,0,.868.868h3.471a.868.868,0,0,0,.868-.868V10.677h2.169a.434.434,0,0,0,.258-.783L11.167,2.263l-.005-.005A.868.868,0,0,0,10.545,2Z" transform="translate(9.632 9.961)" fill="#5c5c5c"/>
</svg>
