<svg xmlns="http://www.w3.org/2000/svg" width="40" height="40" viewBox="0 0 40 40">
  <g id="ic_slide_logout" transform="translate(0 -0.23)">
    <rect id="Bounds" width="40" height="40" transform="translate(0 0.23)" fill="none"/>
    <path id="icons8-exit_sign" d="M19.612,3H6.624A1.623,1.623,0,0,0,5,4.624V20.86a1.623,1.623,0,0,0,1.624,1.624H19.612a1.623,1.623,0,0,0,1.624-1.624V4.624A1.623,1.623,0,0,0,19.612,3ZM16.364,4.624a1.624,1.624,0,1,1-1.623,1.624A1.624,1.624,0,0,1,16.364,4.624ZM10.349,18.249a.8.8,0,0,1-.478.175H6.624a.812.812,0,0,1-.812-.812.863.863,0,0,1,.731-.808c.31-.075,2.87-.327,2.87-.327l1.09-1.169,1.1,1.794Zm6.016,2.611a.8.8,0,0,1-.633-.326l-.011.006-3.947-6.076,0-.006-.037-.058,0-.017a1.608,1.608,0,0,1-.235-.83,1.649,1.649,0,0,1,.03-.3v0l0-.024h0l.536-3.293-1.378-.276-2,1.312a.787.787,0,0,1-.442.149.812.812,0,0,1-.812-.812.8.8,0,0,1,.37-.663l2.427-1.636a.812.812,0,0,1,.45-.136H13.93a1.608,1.608,0,0,1,1.594,1.913l0,0-.006.03s0,0,0,.008l-.809,4.047,2.4,5.856,0,.01.009.022,0,0a.777.777,0,0,1,.058.286A.812.812,0,0,1,16.365,20.86Zm3.247-7.306H17.177a.815.815,0,0,1-.413-.113l-.334-.222.5-1.818.776.528h1.9a.812.812,0,0,1,0,1.624Z" transform="translate(6.961 7.243)" fill="#5c5c5c"/>
  </g>
</svg>
