<svg xmlns="http://www.w3.org/2000/svg" width="40" height="40" viewBox="0 0 40 40">
  <g id="ic_slide_home_active" transform="translate(0 -0.429)">
    <rect id="Bounds" width="40" height="40" transform="translate(0 0.429)" fill="none"/>
    <path id="icons8-registration" d="M11.386,3a3.727,3.727,0,1,0,3.727,3.727A3.731,3.731,0,0,0,11.386,3Zm0,10.249C8.459,13.249,3,14.689,3,17.442v1.4a.932.932,0,0,0,.932.932h7.913a1.531,1.531,0,0,0,1.081-.448L16.9,15.348a.626.626,0,0,0-.207-1.021A15.234,15.234,0,0,0,11.386,13.249Zm9.51.932a.465.465,0,0,0-.329.136l-.932.932L21.5,17.113l.932-.932a.466.466,0,0,0,0-.659l-1.2-1.2A.466.466,0,0,0,20.9,14.181Zm-1.92,1.727-4.8,4.8v1.864h1.864l4.8-4.8Z" transform="translate(7.632 7.597)" fill="#fff"/>
  </g>
</svg>
