<svg xmlns="http://www.w3.org/2000/svg" width="40" height="40" viewBox="0 0 40 40">
  <g id="ic_slide_check_active" transform="translate(0 0.372)">
    <rect id="Bounds" width="40" height="40" transform="translate(0 -0.372)" fill="none"/>
    <path id="icons8-manual" d="M21.92,17.295v1.712c0,3.424-.914,6.278-6.278,6.278-4.682,0-5.48-1.712-6.162-2.626s-4.338-6.051-4.338-6.051a1.725,1.725,0,0,1,2.854-1.94l1.369,1.94V7.022A1.077,1.077,0,0,1,10.505,5.88a1.077,1.077,0,0,1,1.141,1.141V13.3c.343-.116.687-.227,1.141-.343V4.739a1.141,1.141,0,1,1,2.283,0v7.99h1.141V5.31a1.141,1.141,0,1,1,2.283,0v7.647c.455.116.8.227,1.141.343V8.163a1.141,1.141,0,1,1,2.283,0Z" transform="translate(6.313 6.024)" fill="#fff"/>
  </g>
</svg>
