<svg xmlns="http://www.w3.org/2000/svg" width="17.342" height="19.076" viewBox="0 0 17.342 19.076">
  <path id="ic_tool_search_advance_white" d="M5.734,2A1.734,1.734,0,0,0,4,3.734V5.468a.867.867,0,0,0,.867.867H17.006a.867.867,0,0,0,.867-.867V3.734A1.734,1.734,0,0,0,16.139,2ZM4.867,8.069A.867.867,0,0,0,4,8.936V12.4a.867.867,0,0,0,.867.867h5.8a6.049,6.049,0,0,1,7.211-3.212V8.936a.867.867,0,0,0-.867-.867ZM16.14,11.538A4.4,4.4,0,0,0,11.8,15.875a4.292,4.292,0,0,0,4.335,4.334,4.664,4.664,0,0,0,2.428-.694l1.309,1.311A.859.859,0,0,0,21.09,19.61L19.78,18.3a4.664,4.664,0,0,0,.694-2.428A4.292,4.292,0,0,0,16.14,11.538Zm0,1.734a2.6,2.6,0,1,1-2.6,2.6A2.555,2.555,0,0,1,16.139,13.272ZM4.867,15.006A.867.867,0,0,0,4,15.873v1.734a1.734,1.734,0,0,0,1.734,1.734h5.428a5.93,5.93,0,0,1-1.023-4.335Z" transform="translate(-4 -2)" fill="#fff"/>
</svg>
