<svg xmlns="http://www.w3.org/2000/svg" width="19.237" height="18.892" viewBox="0 0 19.237 18.892">
  <g id="ic_tool_search_black" transform="translate(-1065.557 -168.77)">
    <path id="icons8-google_web_search" d="M20.811,12.567a8.18,8.18,0,0,1,8.244,8.1,7.946,7.946,0,0,1-1.532,4.683L31.4,29.155a1.331,1.331,0,0,1,0,1.908,1.391,1.391,0,0,1-1.943,0L25.58,27.255a8.291,8.291,0,0,1-4.769,1.5,8.1,8.1,0,1,1,0-16.193Zm0,2.7a5.4,5.4,0,1,0,5.5,5.4,5.448,5.448,0,0,0-5.5-5.4Z" transform="translate(1052.989 156.202)" fill="#424242"/>
  </g>
</svg>
