<svg id="ic_tool_edit_gray" xmlns="http://www.w3.org/2000/svg" width="29.609" height="29.609" viewBox="0 0 29.609 29.609">
  <path id="XMLID_22_" d="M88.887.32a1.093,1.093,0,0,0-1.545,0L75.32,12.342a1.092,1.092,0,0,0-.32.773v4.372a1.093,1.093,0,0,0,1.093,1.093h4.372a1.093,1.093,0,0,0,.773-.32L93.259,6.237a1.093,1.093,0,0,0,0-1.546Z" transform="translate(-64.12 0.15)" fill="#818181"/>
  <path id="XMLID_23_" d="M28.263,13.459A1.346,1.346,0,0,0,26.918,14.8V26.918H2.692V2.692H14.8A1.346,1.346,0,0,0,14.8,0H1.346A1.346,1.346,0,0,0,0,1.346V28.263a1.346,1.346,0,0,0,1.346,1.346H28.263a1.346,1.346,0,0,0,1.346-1.346V14.8A1.346,1.346,0,0,0,28.263,13.459Z" transform="translate(0 0)" fill="#818181"/>
</svg>
