<svg xmlns="http://www.w3.org/2000/svg" width="27.092" height="27.092" viewBox="0 0 27.092 27.092">
  <path id="ic_tool_filter" d="M12.837,2A4.059,4.059,0,0,0,9.022,4.709H3.355a1.355,1.355,0,1,0,0,2.709H9.022A4.057,4.057,0,1,0,12.837,2Zm8.128,2.709a1.355,1.355,0,1,0,0,2.709h6.773a1.355,1.355,0,1,0,0-2.709ZM19.61,11.482a4.059,4.059,0,0,0-3.815,2.709H3.355a1.355,1.355,0,1,0,0,2.709h12.44a4.057,4.057,0,1,0,3.815-5.418Zm8.128,2.709a1.355,1.355,0,1,0,1.355,1.355,1.355,1.355,0,0,0-1.355-1.355ZM8.773,20.964a4.059,4.059,0,0,0-3.815,2.709h-1.6a1.355,1.355,0,1,0,0,2.709h1.6a4.057,4.057,0,1,0,3.815-5.418ZM16.9,23.674a1.355,1.355,0,1,0,0,2.709H27.738a1.355,1.355,0,1,0,0-2.709Z" transform="translate(-2 -2)" fill="#3384ff"/>
</svg>
