<svg id="ic_tool_template_download" xmlns="http://www.w3.org/2000/svg" width="35" height="35" viewBox="0 0 35 35">
  <rect id="Bounds" width="35" height="35" fill="none"/>
  <path id="Subtraction_7" data-name="Subtraction 7" d="M12.6,17H1.4A1.382,1.382,0,0,1,0,15.64V1.36A1.382,1.382,0,0,1,1.4,0H8.75a.713.713,0,0,1,.495.2l4.55,4.42a.665.665,0,0,1,.2.48V15.64A1.382,1.382,0,0,1,12.6,17ZM4.2,11.56,7,14.28l2.8-2.72H8.4V7.48H5.6v4.08ZM8.4,1.295V4.76a.691.691,0,0,0,.7.68h3.567Z" transform="translate(11 9)" fill="#fff"/>
</svg>
