<svg id="ic_tool_filter_white" xmlns="http://www.w3.org/2000/svg" width="35" height="35" viewBox="0 0 35 35">
  <rect id="Bounds" width="35" height="35" fill="none"/>
  <path id="ic_tool_filter" d="M11.138,2A3.423,3.423,0,0,0,7.921,4.285H3.142a1.142,1.142,0,1,0,0,2.285H7.921A3.421,3.421,0,1,0,11.138,2Zm6.854,2.285a1.142,1.142,0,1,0,0,2.285H23.7a1.142,1.142,0,1,0,0-2.285ZM16.85,10a3.423,3.423,0,0,0-3.217,2.285H3.142a1.142,1.142,0,1,0,0,2.285h10.49A3.421,3.421,0,1,0,16.85,10ZM23.7,12.281a1.142,1.142,0,1,0,1.142,1.142A1.142,1.142,0,0,0,23.7,12.281ZM7.712,17.992a3.423,3.423,0,0,0-3.217,2.285H3.142a1.142,1.142,0,1,0,0,2.285H4.494a3.421,3.421,0,1,0,3.217-4.569Zm6.854,2.285a1.142,1.142,0,1,0,0,2.285H23.7a1.142,1.142,0,1,0,0-2.285Z" transform="translate(4.094 5.026)" fill="#fff"/>
</svg>
