<svg id="ic_tool_upload" xmlns="http://www.w3.org/2000/svg" width="35" height="35" viewBox="0 0 35 35">
  <rect id="Bounds" width="35" height="35" fill="none"/>
  <path id="Subtraction_24" data-name="Subtraction 24" d="M6909.365,14989h-14.727a1.638,1.638,0,0,1-1.637-1.636V14974.9l1.494-2.99a1.653,1.653,0,0,1,1.463-.906h12.083a1.655,1.655,0,0,1,1.463.9l1.5,2.994v12.467A1.638,1.638,0,0,1,6909.365,14989Zm-8.182-8.659v5.387a.818.818,0,0,0,1.636,0v-5.387l1.057,1.058a.813.813,0,0,0,.578.239.819.819,0,0,0,.581-1.4l-2.457-2.452a.826.826,0,0,0-.58-.241.837.837,0,0,0-.579.241l-2.453,2.452a.822.822,0,0,0,0,1.159.813.813,0,0,0,.578.239.823.823,0,0,0,.581-.239l1.056-1.057Zm-5.222-7.7h0l-1.226,2.453h14.532l-1.227-2.453Z" transform="translate(-6884 -14962)" fill="#fff"/>
</svg>
