<svg id="icons8-privacy_policy" xmlns="http://www.w3.org/2000/svg" width="35" height="35" viewBox="0 0 35 35">
  <rect id="Bounds" width="35" height="35" fill="none"/>
  <path id="icons8-privacy_policy-2" data-name="icons8-privacy_policy" d="M6.273,2A2.279,2.279,0,0,0,4,4.273V22.455a2.279,2.279,0,0,0,2.273,2.273h9.091a9.3,9.3,0,0,1-1.136-4.545H8.545V17.909h5.682V15.636H8.545V13.364h9.091v.419l3.056-1.363a2.322,2.322,0,0,1,1.489-.124V8.818L15.364,2Zm7.955,1.7,6.25,6.25h-6.25Zm7.386,10.8L16.5,16.773v3.409A7.057,7.057,0,0,0,21.614,27a7.057,7.057,0,0,0,5.114-6.818V16.773Z" transform="translate(3 4)" fill="#3384ff"/>
</svg>
