<svg xmlns="http://www.w3.org/2000/svg" width="74" height="74" viewBox="0 0 74 74">
  <g id="img_slide_right_stop" transform="translate(-1581 -611)">
    <rect id="Rectangle_433" data-name="Rectangle 433" width="74" height="74" rx="37" transform="translate(1581 611)" fill="#ededed"/>
    <path id="icons8-manual" d="M41.084,32.65v3.632c0,7.263-1.939,13.316-13.316,13.316-9.93,0-11.623-3.632-13.07-5.57S5.5,31.194,5.5,31.194a3.579,3.579,0,0,1,.965-5.079,3.59,3.59,0,0,1,5.088.965l2.9,4.114V10.86a2.283,2.283,0,0,1,2.421-2.421,2.283,2.283,0,0,1,2.421,2.421V24.176c.728-.246,1.456-.482,2.421-.728V6.018A2.283,2.283,0,0,1,24.137,3.6a2.283,2.283,0,0,1,2.421,2.421V22.966h2.421V7.229a2.421,2.421,0,1,1,4.842,0V23.448c.965.246,1.693.482,2.421.728V13.282a2.421,2.421,0,0,1,4.842,0Z" transform="translate(1592.176 621.402)" fill="#3384ff"/>
  </g>
</svg>
