<svg xmlns="http://www.w3.org/2000/svg" width="74" height="74" viewBox="0 0 74 74">
  <g id="img_slide_right_business" transform="translate(-1581 -611)">
    <rect id="Rectangle_433" data-name="Rectangle 433" width="74" height="74" rx="37" transform="translate(1581 611)" fill="#ededed"/>
    <path id="icons8-online_shop_shopping_bag" d="M8.63,4A3.051,3.051,0,0,0,5.578,7.052v6.1L1,19.261a3.052,3.052,0,1,0,6.1,0l3.052-6.1h4.578l-1.526,6.1a3.052,3.052,0,1,0,6.1,0v-6.1h6.1v6.1a3.052,3.052,0,1,0,6.1,0L30,13.156h4.578l3.052,6.1a3.052,3.052,0,1,0,6.1,0l-4.578-6.1v-6.1A3.051,3.051,0,0,0,36.1,4Zm1.526,3.052A1.526,1.526,0,1,1,8.63,8.578,1.527,1.527,0,0,1,10.156,7.052Zm6.1,0a1.526,1.526,0,1,1-1.526,1.526A1.527,1.527,0,0,1,16.261,7.052ZM5.578,25.365v9.156A3.051,3.051,0,0,0,8.63,37.573l15.669,0,.277-3.049H8.63V25.365Zm24.14,1.526a1.525,1.525,0,0,0-1.52,1.386L26.949,42.012a1.528,1.528,0,0,0,1.52,1.666H43.73a1.528,1.528,0,0,0,1.52-1.666L44,28.277a1.525,1.525,0,0,0-1.52-1.386Zm3.329,3.052a1.527,1.527,0,0,1,1.526,1.526,1.526,1.526,0,0,0,3.052,0,1.526,1.526,0,1,1,3.052,0,4.578,4.578,0,0,1-9.156,0A1.527,1.527,0,0,1,33.047,29.943Z" transform="translate(1592.043 623.831)" fill="#3384ff"/>
  </g>
</svg>
