<svg xmlns="http://www.w3.org/2000/svg" width="74" height="74" viewBox="0 0 74 74">
  <g id="img_slide_right_success" transform="translate(-1581 -611)">
    <rect id="Rectangle_433" data-name="Rectangle 433" width="74" height="74" rx="37" transform="translate(1581 611)" fill="#ededed"/>
    <path id="icons8-good_quality" d="M48,25A23,23,0,1,0,25,48,23.026,23.026,0,0,0,48,25ZM35.554,27.875A2.309,2.309,0,0,1,37,29.953c0,1.626-1.9,2.349-1.9,2.349a3.125,3.125,0,0,1,.542,1.717c0,.9.09,2.982-8.493,2.982-10.581,0-10.368-1.728-14.2-1.972a1.006,1.006,0,0,1-.95-1V24.883a1.043,1.043,0,0,1,.634-1c1.384-.515,2.174-2.687,3.676-4.505,1.988-2.349,6.148-3.343,6.69-9.035.271-2.259,2.53-1.265,3.253,0,1.175,1.988.209,4.052-.785,6.13C24.654,18.283,24.729,20,27.094,20H33c1.626,0,2.554.647,2.554,1.55a16.227,16.227,0,0,1-.181,1.9A2.419,2.419,0,0,1,37,25.616,2.716,2.716,0,0,1,35.554,27.875Z" transform="translate(1593 623)" fill="#3384ff"/>
  </g>
</svg>
