<svg xmlns="http://www.w3.org/2000/svg" width="55" height="55" viewBox="0 0 55 55">
  <g id="img_tab_user_default" transform="translate(-1484.252 -22.253)">
    <circle id="Ellipse_162" data-name="Ellipse 162" cx="27.5" cy="27.5" r="27.5" transform="translate(1484.253 22.253)" fill="#fff"/>
    <circle id="Ellipse_206" data-name="Ellipse 206" cx="24.5" cy="24.5" r="24.5" transform="translate(1487.253 25.253)" fill="#3484ff"/>
    <path id="icons8-user_male" d="M20.364,2c-.455,0-.9.011-1.334.045-.054,0-.1.017-.158.023-.379.034-.749.079-1.108.136-.384.062-.769.136-1.131.226-.017,0-.031.02-.045.023a11.314,11.314,0,0,0-2.125.769,9.425,9.425,0,0,0-1.809,1.153,9.043,9.043,0,0,0-.769.7,9.389,9.389,0,0,0-2.171,3.6c-.116.342-.229.7-.317,1.063-.079.328-.147.673-.2,1.017-.037.223-.065.449-.09.678-.02.184-.054.353-.068.543-.034.427-.045.865-.045,1.311a10.488,10.488,0,0,0,.136,1.334c.076.54.187,1.125.317,1.718.116.531.229,1.046.362,1.538l.045.181c.09.325.184.653.271.927a2.594,2.594,0,0,0-.633.61,3.241,3.241,0,0,0-.5,2.171,4.537,4.537,0,0,0,2.465,3.776,11.446,11.446,0,0,0,1.854,4.228,11.721,11.721,0,0,0,4.454,4.092c.034.017.057.051.09.068a3.392,3.392,0,0,0,5.427,0c.034-.017.057-.051.09-.068a11.6,11.6,0,0,0,4.409-4.092,11.562,11.562,0,0,0,1.831-4.228,4.465,4.465,0,0,0,2.51-3.753,3.292,3.292,0,0,0-.52-2.193,2.645,2.645,0,0,0-.633-.61c.119-.376.26-.8.384-1.266.008-.028.014-.062.023-.09.014-.048.031-.107.045-.158.13-.509.22-1,.317-1.492.11-.568.209-1.128.271-1.673.02-.158.031-.319.045-.475.028-.285.054-.565.068-.859s.023-.56.023-.837c0-.2-.008-.418-.023-.633,0-.031,0-.059,0-.09-.014-.178-.045-.353-.068-.543-.014-.1-.028-.212-.045-.317s-.025-.209-.045-.317c-.017-.085-.025-.164-.045-.249-.025-.119-.059-.243-.09-.362-.02-.076-.045-.153-.068-.226-.037-.127-.071-.257-.113-.384-.023-.071-.042-.136-.068-.2-.045-.122-.107-.24-.158-.362-.082-.192-.172-.379-.271-.565-.04-.076-.071-.153-.113-.226-.057-.1-.138-.2-.2-.294-.048-.073-.085-.155-.136-.226-.068-.093-.13-.184-.2-.271-.057-.071-.122-.136-.181-.2s-.147-.172-.226-.249-.15-.133-.226-.2a5.283,5.283,0,0,0-3.1-1.289,6.03,6.03,0,0,0-.927-1.04,6.047,6.047,0,0,0-.543-.452c-.023-.017-.045-.028-.068-.045l-.068-.045A6.8,6.8,0,0,0,24.5,2.95a7.954,7.954,0,0,0-2.758-.859c-.051-.006-.1-.017-.158-.023s-.093.006-.136,0A10.853,10.853,0,0,0,20.364,2Zm5.63,8.954A11.008,11.008,0,0,1,27.8,16.471c.014,1.207.48,3.216,2.1,3.414a2.056,2.056,0,0,1,.5.52,1.722,1.722,0,0,1,.271,1.221,3.038,3.038,0,0,1-1.9,2.781.726.726,0,0,0-.5.61,10.611,10.611,0,0,1-1.7,3.934,10.36,10.36,0,0,1-3.912,3.663.717.717,0,0,0-.294.249,2.169,2.169,0,0,1-3.618,0,.717.717,0,0,0-.294-.249,10.439,10.439,0,0,1-3.934-3.663,10.572,10.572,0,0,1-1.718-3.934.72.72,0,0,0-.475-.588,3.13,3.13,0,0,1-1.9-2.826,1.722,1.722,0,0,1,.271-1.221,2.035,2.035,0,0,1,.271-.317.773.773,0,0,0,.181.023c1.427,0,1.922-2.377,2.171-3.618.452-2.258,2.939-2.894,6.512-2.894A7.724,7.724,0,0,0,25.994,10.954Zm-9.406,9.135a1.085,1.085,0,1,0,1.085,1.085A1.086,1.086,0,0,0,16.588,20.088Zm7.959,0a1.085,1.085,0,1,0,1.085,1.085A1.086,1.086,0,0,0,24.547,20.088Z" transform="translate(1491.213 31.444)" fill="#fff"/>
  </g>
</svg>
