<svg xmlns="http://www.w3.org/2000/svg" xmlns:xlink="http://www.w3.org/1999/xlink" width="55" height="55" viewBox="0 0 55 55">
  <defs>
    <clipPath id="clip-path">
      <path id="Union_97" data-name="Union 97" d="M0,35.539A21.169,21.169,0,0,1,4.582,22.2a14.173,14.173,0,0,1,10.93-5.277A14.173,14.173,0,0,1,26.441,22.2a21.174,21.174,0,0,1,4.582,13.353,34.515,34.515,0,0,1-15.512,3.938C8.361,39.493,1.627,36.354,0,35.539ZM7.754,7.758a7.758,7.758,0,1,1,7.758,7.758A7.758,7.758,0,0,1,7.754,7.758Z" transform="translate(0 0)" fill="#aaa"/>
    </clipPath>
  </defs>
  <g id="user_profile" transform="translate(18295.922 2120.921)">
    <g id="Path_76597" data-name="Path 76597" transform="translate(-18295.922 -2120.921)" fill="#e4e4e4">
      <path d="M 27.5 53.5 C 23.98936080932617 53.5 20.58452987670898 52.81277084350586 17.38009071350098 51.4574089050293 C 14.28419971466064 50.1479606628418 11.50349998474121 48.2730598449707 9.115220069885254 45.88478088378906 C 6.726940155029297 43.49649810791016 4.852039813995361 40.71580123901367 3.542589902877808 37.61991119384766 C 2.187230110168457 34.41547012329102 1.5 31.01063919067383 1.5 27.5 C 1.5 23.98936080932617 2.187230110168457 20.58452987670898 3.542589902877808 17.38009071350098 C 4.852039813995361 14.28419971466064 6.726940155029297 11.50349998474121 9.115220069885254 9.115220069885254 C 11.50349998474121 6.726940155029297 14.28419971466064 4.852039813995361 17.38009071350098 3.542589902877808 C 20.58452987670898 2.187230110168457 23.98936080932617 1.5 27.5 1.5 C 31.01063919067383 1.5 34.41547012329102 2.187230110168457 37.61991119384766 3.542589902877808 C 40.71580123901367 4.852039813995361 43.49649810791016 6.726940155029297 45.88478088378906 9.115220069885254 C 48.2730598449707 11.50349998474121 50.1479606628418 14.28419971466064 51.4574089050293 17.38009071350098 C 52.81277084350586 20.58452987670898 53.5 23.98936080932617 53.5 27.5 C 53.5 31.01063919067383 52.81277084350586 34.41547012329102 51.4574089050293 37.61991119384766 C 50.1479606628418 40.71580123901367 48.2730598449707 43.49649810791016 45.88478088378906 45.88478088378906 C 43.49649810791016 48.2730598449707 40.71580123901367 50.1479606628418 37.61991119384766 51.4574089050293 C 34.41547012329102 52.81277084350586 31.01063919067383 53.5 27.5 53.5 Z" stroke="none"/>
      <path d="M 27.5 3 C 24.19120025634766 3 20.98297119140625 3.647361755371094 17.96442031860352 4.924098968505859 C 15.04732894897461 6.157920837402344 12.4268913269043 7.924880981445313 10.17588043212891 10.17588043212891 C 7.924880981445313 12.4268913269043 6.157920837402344 15.04732894897461 4.924098968505859 17.96442031860352 C 3.647361755371094 20.98297119140625 3 24.19120025634766 3 27.5 C 3 30.80879974365234 3.647361755371094 34.01702880859375 4.924098968505859 37.03557968139648 C 6.157920837402344 39.95267105102539 7.924880981445313 42.5731086730957 10.17588043212891 44.82411956787109 C 12.4268913269043 47.07511901855469 15.04732894897461 48.84207916259766 17.96442031860352 50.07590103149414 C 20.98297119140625 51.35263824462891 24.19120025634766 52 27.5 52 C 30.80879974365234 52 34.01702880859375 51.35263824462891 37.03557968139648 50.07590103149414 C 39.95267105102539 48.84207916259766 42.5731086730957 47.07511901855469 44.82411956787109 44.82411956787109 C 47.07511901855469 42.5731086730957 48.84207916259766 39.95267105102539 50.07590103149414 37.03557968139648 C 51.35263824462891 34.01702880859375 52 30.80879974365234 52 27.5 C 52 24.19120025634766 51.35263824462891 20.98297119140625 50.07590103149414 17.96442031860352 C 48.84207916259766 15.04732894897461 47.07511901855469 12.4268913269043 44.82411956787109 10.17588043212891 C 42.5731086730957 7.924880981445313 39.95267105102539 6.157920837402344 37.03557968139648 4.924098968505859 C 34.01702880859375 3.647361755371094 30.80879974365234 3 27.5 3 M 27.5 0 C 42.68782806396484 0 55 12.31216812133789 55 27.5 C 55 42.68782806396484 42.68782806396484 55 27.5 55 C 12.31216812133789 55 0 42.68782806396484 0 27.5 C 0 12.31216812133789 12.31216812133789 0 27.5 0 Z" stroke="none" fill="#fff"/>
    </g>
    <g id="Mask_Group_56" data-name="Mask Group 56" transform="translate(-18283.912 -2108.426)" clip-path="url(#clip-path)">
      <path id="Path_76598" data-name="Path 76598" d="M23.442,0A23.442,23.442,0,1,1,0,23.442,23.442,23.442,0,0,1,23.442,0Z" transform="translate(-7.913 -7.418)" fill="#aaa"/>
    </g>
  </g>
</svg>
